<mxfile host="app.diagrams.net" modified="2024-02-16T11:51:25.392Z" agent="Mozilla/5.0 (Windows NT 10.0; Win64; x64) AppleWebKit/537.36 (KHTML, like Gecko) Chrome/121.0.0.0 Safari/537.36" etag="7DEfweNqqu3qcNgcub9K" version="22.1.16" type="github">
  <diagram name="Page-1" id="MbMx76x-FA_294pmURPq">
    <mxGraphModel dx="587" dy="524" grid="1" gridSize="10" guides="1" tooltips="1" connect="1" arrows="1" fold="1" page="1" pageScale="1" pageWidth="850" pageHeight="1100" math="0" shadow="0">
      <root>
        <mxCell id="0" />
        <mxCell id="1" parent="0" />
        <mxCell id="-gLQjQ67X8zoJ8Ws3GJc-1" value="Source Code" style="rounded=0;whiteSpace=wrap;html=1;" vertex="1" parent="1">
          <mxGeometry x="365" y="20" width="115" height="40" as="geometry" />
        </mxCell>
        <mxCell id="-gLQjQ67X8zoJ8Ws3GJc-2" value="Expanded &lt;br&gt;Source Code" style="rounded=0;whiteSpace=wrap;html=1;" vertex="1" parent="1">
          <mxGeometry x="365" y="100" width="115" height="40" as="geometry" />
        </mxCell>
        <mxCell id="-gLQjQ67X8zoJ8Ws3GJc-5" value="Tokens" style="rounded=0;whiteSpace=wrap;html=1;" vertex="1" parent="1">
          <mxGeometry x="362.5" y="180" width="117.5" height="40" as="geometry" />
        </mxCell>
        <mxCell id="-gLQjQ67X8zoJ8Ws3GJc-7" value="Expanded &lt;br&gt;Tokens" style="rounded=0;whiteSpace=wrap;html=1;" vertex="1" parent="1">
          <mxGeometry x="361.25" y="260" width="118.75" height="40" as="geometry" />
        </mxCell>
        <mxCell id="-gLQjQ67X8zoJ8Ws3GJc-9" value="" style="endArrow=classic;html=1;rounded=0;" edge="1" parent="1" source="-gLQjQ67X8zoJ8Ws3GJc-1" target="-gLQjQ67X8zoJ8Ws3GJc-2">
          <mxGeometry width="50" height="50" relative="1" as="geometry">
            <mxPoint x="145" y="190" as="sourcePoint" />
            <mxPoint x="195" y="140" as="targetPoint" />
          </mxGeometry>
        </mxCell>
        <mxCell id="-gLQjQ67X8zoJ8Ws3GJc-10" value="" style="endArrow=classic;html=1;rounded=0;" edge="1" parent="1" source="-gLQjQ67X8zoJ8Ws3GJc-2" target="-gLQjQ67X8zoJ8Ws3GJc-5">
          <mxGeometry width="50" height="50" relative="1" as="geometry">
            <mxPoint x="525" y="300" as="sourcePoint" />
            <mxPoint x="575" y="250" as="targetPoint" />
          </mxGeometry>
        </mxCell>
        <mxCell id="-gLQjQ67X8zoJ8Ws3GJc-11" value="" style="endArrow=classic;html=1;rounded=0;" edge="1" parent="1" source="-gLQjQ67X8zoJ8Ws3GJc-5" target="-gLQjQ67X8zoJ8Ws3GJc-7">
          <mxGeometry width="50" height="50" relative="1" as="geometry">
            <mxPoint x="455" y="180" as="sourcePoint" />
            <mxPoint x="415" y="-80" as="targetPoint" />
          </mxGeometry>
        </mxCell>
        <mxCell id="-gLQjQ67X8zoJ8Ws3GJc-12" value="AST" style="rounded=0;whiteSpace=wrap;html=1;" vertex="1" parent="1">
          <mxGeometry x="361.25" y="340" width="118.75" height="40" as="geometry" />
        </mxCell>
        <mxCell id="-gLQjQ67X8zoJ8Ws3GJc-13" value="" style="endArrow=classic;html=1;rounded=0;" edge="1" parent="1" source="-gLQjQ67X8zoJ8Ws3GJc-7" target="-gLQjQ67X8zoJ8Ws3GJc-12">
          <mxGeometry width="50" height="50" relative="1" as="geometry">
            <mxPoint x="515" y="550" as="sourcePoint" />
            <mxPoint x="565" y="500" as="targetPoint" />
          </mxGeometry>
        </mxCell>
        <mxCell id="-gLQjQ67X8zoJ8Ws3GJc-14" value="Expanded&lt;br&gt;AST" style="rounded=0;whiteSpace=wrap;html=1;" vertex="1" parent="1">
          <mxGeometry x="361.25" y="410" width="118.75" height="40" as="geometry" />
        </mxCell>
        <mxCell id="-gLQjQ67X8zoJ8Ws3GJc-16" value="" style="endArrow=classic;html=1;rounded=0;" edge="1" parent="1" source="-gLQjQ67X8zoJ8Ws3GJc-12" target="-gLQjQ67X8zoJ8Ws3GJc-14">
          <mxGeometry width="50" height="50" relative="1" as="geometry">
            <mxPoint x="545" y="660" as="sourcePoint" />
            <mxPoint x="595" y="610" as="targetPoint" />
          </mxGeometry>
        </mxCell>
        <mxCell id="-gLQjQ67X8zoJ8Ws3GJc-17" value="IR" style="rounded=0;whiteSpace=wrap;html=1;" vertex="1" parent="1">
          <mxGeometry x="360" y="480" width="120" height="30" as="geometry" />
        </mxCell>
        <mxCell id="-gLQjQ67X8zoJ8Ws3GJc-18" value="Exapnded&lt;br&gt;IR" style="rounded=0;whiteSpace=wrap;html=1;" vertex="1" parent="1">
          <mxGeometry x="360" y="550" width="120" height="40" as="geometry" />
        </mxCell>
        <mxCell id="-gLQjQ67X8zoJ8Ws3GJc-19" value="Optimized IR" style="rounded=0;whiteSpace=wrap;html=1;" vertex="1" parent="1">
          <mxGeometry x="361.25" y="620" width="119.37" height="30" as="geometry" />
        </mxCell>
        <mxCell id="-gLQjQ67X8zoJ8Ws3GJc-20" value="Machine&lt;br&gt;Code" style="rounded=0;whiteSpace=wrap;html=1;" vertex="1" parent="1">
          <mxGeometry x="361.25" y="690" width="120" height="60" as="geometry" />
        </mxCell>
        <mxCell id="-gLQjQ67X8zoJ8Ws3GJc-21" value="" style="endArrow=classic;html=1;rounded=0;" edge="1" parent="1" source="-gLQjQ67X8zoJ8Ws3GJc-14" target="-gLQjQ67X8zoJ8Ws3GJc-17">
          <mxGeometry width="50" height="50" relative="1" as="geometry">
            <mxPoint x="480" y="640" as="sourcePoint" />
            <mxPoint x="530" y="590" as="targetPoint" />
          </mxGeometry>
        </mxCell>
        <mxCell id="-gLQjQ67X8zoJ8Ws3GJc-23" value="" style="endArrow=classic;html=1;rounded=0;" edge="1" parent="1" source="-gLQjQ67X8zoJ8Ws3GJc-17" target="-gLQjQ67X8zoJ8Ws3GJc-18">
          <mxGeometry width="50" height="50" relative="1" as="geometry">
            <mxPoint x="480" y="640" as="sourcePoint" />
            <mxPoint x="530" y="590" as="targetPoint" />
          </mxGeometry>
        </mxCell>
        <mxCell id="-gLQjQ67X8zoJ8Ws3GJc-24" value="" style="endArrow=classic;html=1;rounded=0;" edge="1" parent="1" source="-gLQjQ67X8zoJ8Ws3GJc-18" target="-gLQjQ67X8zoJ8Ws3GJc-19">
          <mxGeometry width="50" height="50" relative="1" as="geometry">
            <mxPoint x="510" y="590" as="sourcePoint" />
            <mxPoint x="560" y="540" as="targetPoint" />
          </mxGeometry>
        </mxCell>
        <mxCell id="-gLQjQ67X8zoJ8Ws3GJc-25" value="" style="endArrow=classic;html=1;rounded=0;" edge="1" parent="1" source="-gLQjQ67X8zoJ8Ws3GJc-19" target="-gLQjQ67X8zoJ8Ws3GJc-20">
          <mxGeometry width="50" height="50" relative="1" as="geometry">
            <mxPoint x="450" y="660" as="sourcePoint" />
            <mxPoint x="500" y="610" as="targetPoint" />
          </mxGeometry>
        </mxCell>
      </root>
    </mxGraphModel>
  </diagram>
</mxfile>
